<mxfile host="app.diagrams.net" modified="2023-09-27T08:37:45.097Z" agent="Mozilla/5.0 (Windows NT 10.0; Win64; x64) AppleWebKit/537.36 (KHTML, like Gecko) Chrome/117.0.0.0 Safari/537.36" etag="NerhUu7IG0-vqrKtNpCa" version="21.8.2" type="device">
  <diagram name="Página-1" id="rmxmsDDJTBTPV54pK9kl">
    <mxGraphModel dx="2205" dy="520" grid="1" gridSize="10" guides="1" tooltips="1" connect="1" arrows="1" fold="1" page="1" pageScale="1" pageWidth="1169" pageHeight="1654" math="0" shadow="0">
      <root>
        <mxCell id="0" />
        <mxCell id="1" parent="0" />
        <mxCell id="Bfw7JXXDtjmNQw6cTX-R-3" value="" style="rounded=0;whiteSpace=wrap;html=1;fillColor=#d5e8d4;strokeColor=#82b366;" parent="1" vertex="1">
          <mxGeometry x="200" y="85" width="780" height="650" as="geometry" />
        </mxCell>
        <mxCell id="Bfw7JXXDtjmNQw6cTX-R-4" value="Utilizador" style="shape=umlActor;verticalLabelPosition=bottom;verticalAlign=top;html=1;fillColor=#fff2cc;strokeColor=#d6b656;gradientColor=#ffd966;" parent="1" vertex="1">
          <mxGeometry x="100" y="230" width="50" height="100" as="geometry" />
        </mxCell>
        <mxCell id="Bfw7JXXDtjmNQw6cTX-R-5" value="Funcionário da Biblioteca" style="shape=umlActor;verticalLabelPosition=bottom;verticalAlign=top;html=1;fillColor=#e6d0de;gradientColor=#d5739d;strokeColor=#996185;" parent="1" vertex="1">
          <mxGeometry x="1020" y="390" width="50" height="100" as="geometry" />
        </mxCell>
        <mxCell id="Bfw7JXXDtjmNQw6cTX-R-7" value="Sistema de gestão de empréstimos da biblioteca" style="text;align=center;fontStyle=1;verticalAlign=middle;spacingLeft=3;spacingRight=3;strokeColor=none;rotatable=0;points=[[0,0.5],[1,0.5]];portConstraint=eastwest;html=1;fontSize=23;" parent="1" vertex="1">
          <mxGeometry x="315" y="90" width="540" height="46" as="geometry" />
        </mxCell>
        <mxCell id="Bfw7JXXDtjmNQw6cTX-R-8" value="Consultar Empréstimos Vencidos" style="ellipse;whiteSpace=wrap;html=1;fillColor=#dae8fc;strokeColor=#6c8ebf;" parent="1" vertex="1">
          <mxGeometry x="820" y="600" width="140" height="70" as="geometry" />
        </mxCell>
        <mxCell id="Bfw7JXXDtjmNQw6cTX-R-9" value="Professor" style="shape=umlActor;verticalLabelPosition=bottom;verticalAlign=top;html=1;fillColor=#f8cecc;strokeColor=#b85450;gradientColor=#ea6b66;" parent="1" vertex="1">
          <mxGeometry x="-20" y="420" width="50" height="100" as="geometry" />
        </mxCell>
        <mxCell id="Bfw7JXXDtjmNQw6cTX-R-13" value="Gerir Limites de Empréstimo" style="ellipse;whiteSpace=wrap;html=1;fillColor=#dae8fc;strokeColor=#6c8ebf;" parent="1" vertex="1">
          <mxGeometry x="230" y="615" width="140" height="70" as="geometry" />
        </mxCell>
        <mxCell id="Bfw7JXXDtjmNQw6cTX-R-15" value="Pesquisar Publicações" style="ellipse;whiteSpace=wrap;html=1;fillColor=#dae8fc;strokeColor=#6c8ebf;" parent="1" vertex="1">
          <mxGeometry x="330" y="290" width="140" height="70" as="geometry" />
        </mxCell>
        <mxCell id="Bfw7JXXDtjmNQw6cTX-R-20" value="Mostrar data de entrega" style="ellipse;whiteSpace=wrap;html=1;fillColor=#fff2cc;strokeColor=#d6b656;" parent="1" vertex="1">
          <mxGeometry x="210" y="140" width="140" height="70" as="geometry" />
        </mxCell>
        <mxCell id="Bfw7JXXDtjmNQw6cTX-R-21" value="&amp;lt;&amp;lt;extend&amp;gt;&amp;gt;" style="endArrow=open;endSize=12;dashed=1;html=1;rounded=0;" parent="1" source="Bfw7JXXDtjmNQw6cTX-R-15" target="Bfw7JXXDtjmNQw6cTX-R-20" edge="1">
          <mxGeometry x="-0.0408" y="2" width="160" relative="1" as="geometry">
            <mxPoint x="510" y="400" as="sourcePoint" />
            <mxPoint x="670" y="400" as="targetPoint" />
            <mxPoint as="offset" />
          </mxGeometry>
        </mxCell>
        <mxCell id="Bfw7JXXDtjmNQw6cTX-R-23" value="Assistente Operacional" style="shape=umlActor;verticalLabelPosition=bottom;verticalAlign=top;html=1;fillColor=#dae8fc;strokeColor=#6c8ebf;gradientColor=#7ea6e0;" parent="1" vertex="1">
          <mxGeometry x="100" y="420" width="50" height="100" as="geometry" />
        </mxCell>
        <mxCell id="Bfw7JXXDtjmNQw6cTX-R-30" value="Reservar Publicações" style="ellipse;whiteSpace=wrap;html=1;fillColor=#dae8fc;strokeColor=#6c8ebf;" parent="1" vertex="1">
          <mxGeometry x="230" y="450" width="140" height="70" as="geometry" />
        </mxCell>
        <mxCell id="Bfw7JXXDtjmNQw6cTX-R-34" value="Envio da data de devolução por email" style="ellipse;whiteSpace=wrap;html=1;fillColor=#fff2cc;strokeColor=#d6b656;" parent="1" vertex="1">
          <mxGeometry x="380.0000000000001" y="530" width="140" height="70" as="geometry" />
        </mxCell>
        <mxCell id="Bfw7JXXDtjmNQw6cTX-R-36" value="&amp;lt;&amp;lt;include&amp;gt;&amp;gt;" style="endArrow=open;endSize=12;dashed=1;html=1;rounded=0;" parent="1" source="Bfw7JXXDtjmNQw6cTX-R-34" target="Bfw7JXXDtjmNQw6cTX-R-30" edge="1">
          <mxGeometry width="160" relative="1" as="geometry">
            <mxPoint x="510" y="420" as="sourcePoint" />
            <mxPoint x="670" y="420" as="targetPoint" />
          </mxGeometry>
        </mxCell>
        <mxCell id="Bfw7JXXDtjmNQw6cTX-R-39" value="&lt;font style=&quot;font-size: 10px;&quot;&gt;apenas acontece, &lt;br&gt;se estiver reservada&lt;/font&gt;" style="html=1;dropTarget=0;whiteSpace=wrap;fillColor=#f8cecc;strokeColor=#b85450;" parent="1" vertex="1">
          <mxGeometry x="370" y="140" width="140" height="45" as="geometry" />
        </mxCell>
        <mxCell id="Bfw7JXXDtjmNQw6cTX-R-40" value="" style="shape=module;jettyWidth=8;jettyHeight=4;" parent="Bfw7JXXDtjmNQw6cTX-R-39" vertex="1">
          <mxGeometry x="1" width="20" height="20" relative="1" as="geometry">
            <mxPoint x="-27" y="7" as="offset" />
          </mxGeometry>
        </mxCell>
        <mxCell id="Bfw7JXXDtjmNQw6cTX-R-42" value="" style="endArrow=none;html=1;rounded=0;" parent="1" source="Bfw7JXXDtjmNQw6cTX-R-39" edge="1">
          <mxGeometry relative="1" as="geometry">
            <mxPoint x="510" y="390" as="sourcePoint" />
            <mxPoint x="350" y="260" as="targetPoint" />
          </mxGeometry>
        </mxCell>
        <mxCell id="Bfw7JXXDtjmNQw6cTX-R-47" value="Registar Empréstimos" style="ellipse;whiteSpace=wrap;html=1;fillColor=#dae8fc;strokeColor=#6c8ebf;" parent="1" vertex="1">
          <mxGeometry x="800" y="290" width="140" height="70" as="geometry" />
        </mxCell>
        <mxCell id="Bfw7JXXDtjmNQw6cTX-R-49" value="Inserir Número de Processo" style="ellipse;whiteSpace=wrap;html=1;fillColor=#fff2cc;strokeColor=#d6b656;" parent="1" vertex="1">
          <mxGeometry x="585.0000000000001" y="160" width="140" height="70" as="geometry" />
        </mxCell>
        <mxCell id="Bfw7JXXDtjmNQw6cTX-R-51" value="&amp;lt;&amp;lt;include&amp;gt;&amp;gt;" style="endArrow=open;endSize=12;dashed=1;html=1;rounded=0;" parent="1" source="Bfw7JXXDtjmNQw6cTX-R-49" target="Bfw7JXXDtjmNQw6cTX-R-47" edge="1">
          <mxGeometry x="-0.083" y="10" width="160" relative="1" as="geometry">
            <mxPoint x="620" y="510" as="sourcePoint" />
            <mxPoint x="780" y="510" as="targetPoint" />
            <mxPoint as="offset" />
          </mxGeometry>
        </mxCell>
        <mxCell id="Bfw7JXXDtjmNQw6cTX-R-52" value="Visualizar Detalhes do Requerente" style="ellipse;whiteSpace=wrap;html=1;fillColor=#fff2cc;strokeColor=#d6b656;" parent="1" vertex="1">
          <mxGeometry x="530.0000000000001" y="270" width="140" height="70" as="geometry" />
        </mxCell>
        <mxCell id="Bfw7JXXDtjmNQw6cTX-R-53" value="&amp;lt;&amp;lt;include&amp;gt;&amp;gt;" style="endArrow=open;endSize=12;dashed=1;html=1;rounded=0;" parent="1" source="Bfw7JXXDtjmNQw6cTX-R-52" target="Bfw7JXXDtjmNQw6cTX-R-47" edge="1">
          <mxGeometry x="-0.2469" y="9" width="160" relative="1" as="geometry">
            <mxPoint x="640" y="420" as="sourcePoint" />
            <mxPoint x="800" y="420" as="targetPoint" />
            <mxPoint as="offset" />
          </mxGeometry>
        </mxCell>
        <mxCell id="Bfw7JXXDtjmNQw6cTX-R-54" value="&lt;font style=&quot;font-size: 10px;&quot;&gt;Nome e fotografia &lt;/font&gt;" style="html=1;dropTarget=0;whiteSpace=wrap;fillColor=#f8cecc;strokeColor=#b85450;" parent="1" vertex="1">
          <mxGeometry x="480" y="360" width="140" height="35" as="geometry" />
        </mxCell>
        <mxCell id="Bfw7JXXDtjmNQw6cTX-R-55" value="" style="shape=module;jettyWidth=8;jettyHeight=4;" parent="Bfw7JXXDtjmNQw6cTX-R-54" vertex="1">
          <mxGeometry x="1" width="20" height="20" relative="1" as="geometry">
            <mxPoint x="-27" y="7" as="offset" />
          </mxGeometry>
        </mxCell>
        <mxCell id="Bfw7JXXDtjmNQw6cTX-R-58" value="" style="endArrow=none;html=1;rounded=0;" parent="1" source="Bfw7JXXDtjmNQw6cTX-R-52" target="Bfw7JXXDtjmNQw6cTX-R-54" edge="1">
          <mxGeometry relative="1" as="geometry">
            <mxPoint x="380" y="178" as="sourcePoint" />
            <mxPoint x="359" y="180" as="targetPoint" />
          </mxGeometry>
        </mxCell>
        <mxCell id="Bfw7JXXDtjmNQw6cTX-R-59" value="Inserir Cotas das Publicações" style="ellipse;whiteSpace=wrap;html=1;fillColor=#fff2cc;strokeColor=#d6b656;" parent="1" vertex="1">
          <mxGeometry x="660.0000000000001" y="390" width="140" height="70" as="geometry" />
        </mxCell>
        <mxCell id="Bfw7JXXDtjmNQw6cTX-R-60" value="&amp;lt;&amp;lt;include&amp;gt;&amp;gt;" style="endArrow=open;endSize=12;dashed=1;html=1;rounded=0;" parent="1" source="Bfw7JXXDtjmNQw6cTX-R-59" target="Bfw7JXXDtjmNQw6cTX-R-47" edge="1">
          <mxGeometry width="160" relative="1" as="geometry">
            <mxPoint x="650" y="450" as="sourcePoint" />
            <mxPoint x="810" y="450" as="targetPoint" />
          </mxGeometry>
        </mxCell>
        <mxCell id="Bfw7JXXDtjmNQw6cTX-R-64" value="" style="endArrow=none;html=1;rounded=0;entryX=1;entryY=0.3333333333333333;entryDx=0;entryDy=0;entryPerimeter=0;" parent="1" source="Bfw7JXXDtjmNQw6cTX-R-30" target="Bfw7JXXDtjmNQw6cTX-R-4" edge="1">
          <mxGeometry relative="1" as="geometry">
            <mxPoint x="570" y="308" as="sourcePoint" />
            <mxPoint x="537" y="275" as="targetPoint" />
          </mxGeometry>
        </mxCell>
        <mxCell id="Bfw7JXXDtjmNQw6cTX-R-65" value="" style="endArrow=none;html=1;rounded=0;entryX=1;entryY=0.3333333333333333;entryDx=0;entryDy=0;entryPerimeter=0;" parent="1" source="Bfw7JXXDtjmNQw6cTX-R-15" target="Bfw7JXXDtjmNQw6cTX-R-4" edge="1">
          <mxGeometry relative="1" as="geometry">
            <mxPoint x="580" y="318" as="sourcePoint" />
            <mxPoint x="547" y="285" as="targetPoint" />
          </mxGeometry>
        </mxCell>
        <mxCell id="Bfw7JXXDtjmNQw6cTX-R-66" value="" style="endArrow=none;html=1;rounded=0;entryX=1;entryY=0.3333333333333333;entryDx=0;entryDy=0;entryPerimeter=0;" parent="1" source="Bfw7JXXDtjmNQw6cTX-R-13" target="Bfw7JXXDtjmNQw6cTX-R-11" edge="1">
          <mxGeometry relative="1" as="geometry">
            <mxPoint x="590" y="328" as="sourcePoint" />
            <mxPoint x="557" y="295" as="targetPoint" />
          </mxGeometry>
        </mxCell>
        <mxCell id="Bfw7JXXDtjmNQw6cTX-R-67" value="" style="endArrow=none;html=1;rounded=0;entryX=0;entryY=0.3333333333333333;entryDx=0;entryDy=0;entryPerimeter=0;" parent="1" source="Bfw7JXXDtjmNQw6cTX-R-47" target="Bfw7JXXDtjmNQw6cTX-R-5" edge="1">
          <mxGeometry relative="1" as="geometry">
            <mxPoint x="600" y="338" as="sourcePoint" />
            <mxPoint x="567" y="305" as="targetPoint" />
          </mxGeometry>
        </mxCell>
        <mxCell id="Bfw7JXXDtjmNQw6cTX-R-68" value="" style="endArrow=none;html=1;rounded=0;entryX=0;entryY=0.3333333333333333;entryDx=0;entryDy=0;entryPerimeter=0;" parent="1" source="Bfw7JXXDtjmNQw6cTX-R-8" target="Bfw7JXXDtjmNQw6cTX-R-5" edge="1">
          <mxGeometry relative="1" as="geometry">
            <mxPoint x="610" y="348" as="sourcePoint" />
            <mxPoint x="577" y="315" as="targetPoint" />
          </mxGeometry>
        </mxCell>
        <mxCell id="Bfw7JXXDtjmNQw6cTX-R-69" value="" style="endArrow=none;html=1;rounded=0;entryX=1;entryY=0.3333333333333333;entryDx=0;entryDy=0;entryPerimeter=0;" parent="1" source="Bfw7JXXDtjmNQw6cTX-R-49" target="Bfw7JXXDtjmNQw6cTX-R-4" edge="1">
          <mxGeometry relative="1" as="geometry">
            <mxPoint x="620" y="358" as="sourcePoint" />
            <mxPoint x="587" y="325" as="targetPoint" />
            <Array as="points" />
          </mxGeometry>
        </mxCell>
        <mxCell id="Bfw7JXXDtjmNQw6cTX-R-72" value=" Informar sobre Publicações Indisponíveis" style="ellipse;whiteSpace=wrap;html=1;fillColor=#fff2cc;strokeColor=#d6b656;" parent="1" vertex="1">
          <mxGeometry x="820.0000000000001" y="140" width="140" height="70" as="geometry" />
        </mxCell>
        <mxCell id="Bfw7JXXDtjmNQw6cTX-R-73" value="&amp;lt;&amp;lt;extend&amp;gt;&amp;gt;" style="endArrow=open;endSize=12;dashed=1;html=1;rounded=0;" parent="1" source="Bfw7JXXDtjmNQw6cTX-R-47" target="Bfw7JXXDtjmNQw6cTX-R-72" edge="1">
          <mxGeometry x="-0.2322" y="-4" width="160" relative="1" as="geometry">
            <mxPoint x="510" y="450" as="sourcePoint" />
            <mxPoint x="670" y="450" as="targetPoint" />
            <mxPoint as="offset" />
          </mxGeometry>
        </mxCell>
        <mxCell id="Bfw7JXXDtjmNQw6cTX-R-74" value="Registar Devoluções" style="ellipse;whiteSpace=wrap;html=1;fillColor=#dae8fc;strokeColor=#6c8ebf;" parent="1" vertex="1">
          <mxGeometry x="700" y="490" width="140" height="70" as="geometry" />
        </mxCell>
        <mxCell id="Bfw7JXXDtjmNQw6cTX-R-75" value="" style="endArrow=none;html=1;rounded=0;entryX=0;entryY=0.3333333333333333;entryDx=0;entryDy=0;entryPerimeter=0;" parent="1" source="Bfw7JXXDtjmNQw6cTX-R-74" target="Bfw7JXXDtjmNQw6cTX-R-5" edge="1">
          <mxGeometry relative="1" as="geometry">
            <mxPoint x="840" y="280" as="sourcePoint" />
            <mxPoint x="1040" y="278" as="targetPoint" />
          </mxGeometry>
        </mxCell>
        <mxCell id="Bfw7JXXDtjmNQw6cTX-R-76" value="Envio de email com cobrança da multa calculada" style="ellipse;whiteSpace=wrap;html=1;fillColor=#fff2cc;strokeColor=#d6b656;" parent="1" vertex="1">
          <mxGeometry x="445" y="430" width="140" height="80" as="geometry" />
        </mxCell>
        <mxCell id="Bfw7JXXDtjmNQw6cTX-R-77" value="&amp;lt;&amp;lt;extend&amp;gt;&amp;gt;" style="endArrow=open;endSize=12;dashed=1;html=1;rounded=0;" parent="1" source="Bfw7JXXDtjmNQw6cTX-R-74" target="Bfw7JXXDtjmNQw6cTX-R-76" edge="1">
          <mxGeometry x="-0.0904" y="-10" width="160" relative="1" as="geometry">
            <mxPoint x="520" y="500" as="sourcePoint" />
            <mxPoint x="680" y="500" as="targetPoint" />
            <mxPoint as="offset" />
          </mxGeometry>
        </mxCell>
        <mxCell id="Bfw7JXXDtjmNQw6cTX-R-78" value="&lt;span style=&quot;font-size: 10px;&quot;&gt;apenas acontece, &lt;br&gt;quando é excedida&lt;br&gt;a data de entrega&lt;/span&gt;" style="html=1;dropTarget=0;whiteSpace=wrap;fillColor=#f8cecc;strokeColor=#b85450;" parent="1" vertex="1">
          <mxGeometry x="575" y="580" width="150" height="52.5" as="geometry" />
        </mxCell>
        <mxCell id="Bfw7JXXDtjmNQw6cTX-R-79" value="" style="shape=module;jettyWidth=8;jettyHeight=4;" parent="Bfw7JXXDtjmNQw6cTX-R-78" vertex="1">
          <mxGeometry x="1" width="20" height="20" relative="1" as="geometry">
            <mxPoint x="-27" y="7" as="offset" />
          </mxGeometry>
        </mxCell>
        <mxCell id="Bfw7JXXDtjmNQw6cTX-R-80" value="" style="endArrow=none;html=1;rounded=0;" parent="1" target="Bfw7JXXDtjmNQw6cTX-R-78" edge="1">
          <mxGeometry relative="1" as="geometry">
            <mxPoint x="650" y="500" as="sourcePoint" />
            <mxPoint x="586" y="330" as="targetPoint" />
          </mxGeometry>
        </mxCell>
        <mxCell id="Bfw7JXXDtjmNQw6cTX-R-83" value="" style="endArrow=none;html=1;rounded=0;exitX=1;exitY=0.3333333333333333;exitDx=0;exitDy=0;exitPerimeter=0;" parent="1" source="Bfw7JXXDtjmNQw6cTX-R-4" target="Bfw7JXXDtjmNQw6cTX-R-76" edge="1">
          <mxGeometry relative="1" as="geometry">
            <mxPoint x="619" y="350" as="sourcePoint" />
            <mxPoint x="616" y="360" as="targetPoint" />
          </mxGeometry>
        </mxCell>
        <mxCell id="Bfw7JXXDtjmNQw6cTX-R-11" value="Coordenador da Biblioteca" style="shape=umlActor;verticalLabelPosition=bottom;verticalAlign=top;html=1;fillColor=#f5f5f5;gradientColor=#b3b3b3;strokeColor=#666666;" parent="1" vertex="1">
          <mxGeometry x="100" y="600" width="50" height="100" as="geometry" />
        </mxCell>
        <mxCell id="Bfw7JXXDtjmNQw6cTX-R-89" value="Aluno" style="shape=umlActor;verticalLabelPosition=bottom;verticalAlign=top;html=1;fillColor=#d5e8d4;strokeColor=#82b366;gradientColor=#97d077;" parent="1" vertex="1">
          <mxGeometry x="-128" y="420" width="50" height="100" as="geometry" />
        </mxCell>
        <mxCell id="Bfw7JXXDtjmNQw6cTX-R-91" value="" style="endArrow=block;dashed=1;endFill=0;endSize=12;html=1;rounded=0;elbow=vertical;" parent="1" source="Bfw7JXXDtjmNQw6cTX-R-23" target="Bfw7JXXDtjmNQw6cTX-R-4" edge="1">
          <mxGeometry width="160" relative="1" as="geometry">
            <mxPoint x="70" y="485" as="sourcePoint" />
            <mxPoint x="70" y="200" as="targetPoint" />
            <Array as="points">
              <mxPoint x="125" y="400" />
              <mxPoint x="70" y="400" />
              <mxPoint x="70" y="280" />
            </Array>
          </mxGeometry>
        </mxCell>
        <mxCell id="Bfw7JXXDtjmNQw6cTX-R-92" value="" style="endArrow=block;dashed=1;endFill=0;endSize=12;html=1;rounded=0;" parent="1" source="Bfw7JXXDtjmNQw6cTX-R-9" target="Bfw7JXXDtjmNQw6cTX-R-4" edge="1">
          <mxGeometry width="160" relative="1" as="geometry">
            <mxPoint x="-50" y="620" as="sourcePoint" />
            <mxPoint x="110" y="620" as="targetPoint" />
            <Array as="points">
              <mxPoint x="5" y="400" />
              <mxPoint x="70" y="400" />
              <mxPoint x="70" y="280" />
            </Array>
          </mxGeometry>
        </mxCell>
        <mxCell id="Bfw7JXXDtjmNQw6cTX-R-93" value="" style="endArrow=block;dashed=1;endFill=0;endSize=12;html=1;rounded=0;" parent="1" source="Bfw7JXXDtjmNQw6cTX-R-89" target="Bfw7JXXDtjmNQw6cTX-R-4" edge="1">
          <mxGeometry width="160" relative="1" as="geometry">
            <mxPoint x="10" y="660" as="sourcePoint" />
            <mxPoint x="170" y="660" as="targetPoint" />
            <Array as="points">
              <mxPoint x="-103" y="400" />
              <mxPoint x="70" y="400" />
              <mxPoint x="70" y="280" />
            </Array>
          </mxGeometry>
        </mxCell>
      </root>
    </mxGraphModel>
  </diagram>
</mxfile>
